<svg width="21" height="16" viewBox="0 0 21 16" fill="none" xmlns="http://www.w3.org/2000/svg">
<path d="M1.41421 6.39175C2.19526 5.6107 3.46159 5.6107 4.24264 6.39175L8.99019 11.1393C9.77124 11.9203 9.77124 13.1867 8.99019 13.9677C8.20914 14.7488 6.94281 14.7488 6.16176 13.9677L1.41421 9.22018C0.633164 8.43913 0.633164 7.1728 1.41421 6.39175Z" fill="white"/>
<path d="M6.1589 13.9678C5.37785 13.1868 5.37785 11.9204 6.1589 11.1394L15.884 1.41427C16.6651 0.633218 17.9314 0.633216 18.7124 1.41426C19.4935 2.19531 19.4935 3.46164 18.7124 4.24269L8.98733 13.9678C8.20628 14.7488 6.93995 14.7489 6.1589 13.9678Z" fill="white"/>
</svg>
