<svg width="18" height="17" viewBox="0 0 18 17" fill="none" xmlns="http://www.w3.org/2000/svg">
<path d="M1.58577 1.41421C2.36682 0.633165 3.63315 0.633165 4.4142 1.41421L15.7279 12.7279C16.509 13.509 16.509 14.7753 15.7279 15.5563C14.9469 16.3374 13.6805 16.3374 12.8995 15.5563L1.58577 4.24264C0.804723 3.46159 0.804723 2.19526 1.58577 1.41421Z" fill="white"/>
<path d="M15.5564 1.41416C16.3374 2.1952 16.3374 3.46153 15.5564 4.24258L4.24264 15.5563C3.46159 16.3373 2.19527 16.3373 1.41422 15.5563C0.633168 14.7752 0.633168 13.5089 1.41422 12.7279L12.7279 1.41416C13.509 0.633107 14.7753 0.633107 15.5564 1.41416Z" fill="white"/>
</svg>
