<svg width="180" height="44" viewBox="0 0 180 44" fill="none" xmlns="http://www.w3.org/2000/svg">
<g clip-path="url(#clip0_80_111)">
<path d="M6.31248 31.9019C4.30373 31.9019 1.10439 31.5036 0.539622 27.8101C0.130545 25.1551 -0.144208 18.6473 0.615943 13.9891C2.411 12.4256 6.99631 12.3873 7.52444 17.007C7.75646 19.2314 7.75646 23.0782 7.68014 25.4353C10.3745 25.2962 13.0762 25.3712 15.7579 25.6595C17.3362 28.5063 15.0924 31.7308 12.3632 31.9019C9.63395 32.073 6.31248 31.9019 6.31248 31.9019Z" fill="white"/>
<path d="M21.5713 13.5938C24.2425 12.7442 30.0581 11.5583 32.2836 16.8005C33.3368 19.2874 35.3639 25.925 36.1057 29.884C35.834 31.949 29.881 34.2766 28.3424 29.1111C27.1213 29.055 25.7475 29.1288 24.4989 29.0904C24.1388 29.9779 23.8329 30.8852 23.5831 31.8074C18.784 33.5037 16.4608 30.5418 17.3004 26.2642C18.0575 22.4734 20.3227 15.9509 21.5713 13.5938ZM27.6586 23.7007C27.2861 22.1725 26.8984 20.6828 26.526 19.1753C26.4985 19.0632 26.4405 18.8567 26.4405 18.8567C26.4405 18.8567 26.3825 19.0632 26.352 19.193C26.0009 20.668 25.6284 22.143 25.2591 23.7007H27.6586Z" fill="white"/>
<path d="M44.1835 31.3531C42.5441 33.07 38.2702 32.4476 37.4123 28.2054C37.0796 26.5268 36.8659 16.1102 37.4917 13.821C39.3051 12.2751 43.6737 12.2751 44.3972 16.8005C44.7482 19.0514 44.6444 28.1965 44.1835 31.3531Z" fill="white"/>
<path d="M55.5551 17.1575C56.1656 16.0246 57.4081 13.8387 58.1317 12.7825C60.9006 12.2368 64.57 14.5732 62.949 17.7976C61.9355 19.8332 61.5264 19.9276 60.2778 21.851C60.2037 21.9421 60.162 22.0538 60.1587 22.1696C60.1554 22.2854 60.1907 22.3992 60.2595 22.4941C61.6821 25.0577 63.5168 27.8042 64.2586 29.6952C63.5168 32.126 58.8521 34.1203 56.7854 30.2026C56.3763 29.412 55.8695 28.4886 54.9537 26.754C54.5049 27.4325 53.9585 28.2998 53.8821 28.6951C53.8089 29.5488 53.8211 30.4073 53.9188 31.2587C52.2428 32.6364 47.4621 32.5803 46.995 29.2232C46.5462 26.0932 46.3692 17.5144 46.7416 13.9714C48.3016 12.0863 53.6868 12.048 53.8241 15.7237C53.901 17.001 53.901 18.2815 53.8241 19.5588C53.8129 19.7031 53.8129 19.8481 53.8241 19.9925C54.4622 19.0248 54.8132 18.5145 55.5551 17.1575Z" fill="white"/>
<path d="M118.309 26.3764H118.272C118.247 26.3916 118.22 26.4044 118.193 26.4147C118.182 26.4251 118.176 26.4386 118.174 26.4531C118.174 26.7717 118.193 29.6982 117.979 31.7307C116.358 33.4477 111.91 33.0317 111.052 28.7807C110.719 27.1021 110.643 16.5439 111.266 14.2635C112.963 12.6587 121.197 11.5111 125.098 14.054C128.203 16.0542 128.963 22.4646 125.062 25.2908C122.094 27.4148 118.602 26.5652 118.309 26.3764ZM118.614 19.0426C118.614 19.8332 118.614 20.3612 118.632 21.0221C118.632 21.0988 118.77 21.2492 118.846 21.2492C119.336 21.2708 119.827 21.2451 120.311 21.1725C120.894 21.0781 121.169 20.6828 121.169 19.9276C121.169 19.1724 119.908 18.2874 118.623 19.0514L118.614 19.0426Z" fill="white"/>
<path d="M134.855 31.9019C132.843 31.9019 129.644 31.5036 129.079 27.8101C128.67 25.1551 128.395 18.6473 129.159 13.9891C130.951 12.4256 135.536 12.3873 136.064 17.007C136.299 19.2314 136.299 23.0782 136.22 25.4353C138.914 25.2962 141.616 25.3711 144.297 25.6595C145.879 28.5063 143.635 31.7308 140.903 31.9019C138.17 32.073 134.855 31.9019 134.855 31.9019Z" fill="white"/>
<path d="M150.11 13.5938C152.784 12.7442 158.597 11.5583 160.822 16.8005C161.875 19.2874 163.902 25.925 164.644 29.884C164.373 31.949 158.423 34.2766 156.881 29.1111C155.66 29.055 154.286 29.1288 153.038 29.0904C152.677 29.9779 152.372 30.8852 152.122 31.8074C147.323 33.5037 145.003 30.5418 145.839 26.2642C146.608 22.4734 148.861 15.9509 150.11 13.5938ZM156.197 23.7007C155.828 22.1725 155.437 20.6828 155.065 19.1753C155.065 19.0927 154.982 18.8419 154.982 18.8419C154.982 18.8419 154.924 19.0602 154.891 19.193C154.54 20.668 154.167 22.143 153.798 23.7007H156.197Z" fill="white"/>
<path d="M174.89 12.9331C177.68 12.1985 180.977 14.2547 179.493 17.6295C178.208 20.5324 176.898 22.3231 175.183 25.9044C174.986 26.2179 174.881 26.5765 174.877 26.9429C174.899 28.6008 174.819 31.185 174.819 31.4682C173.98 32.5597 167.911 33.1822 167.737 29.0728C167.718 28.6214 167.755 27.0373 167.755 26.7924C167.748 26.5333 167.674 26.28 167.541 26.0549C165.96 23.1343 163.619 18.5529 162.236 15.2902C163.542 12.2546 167.581 12.1248 168.595 13.9715C169.434 15.479 170.426 18.2314 171.15 19.7772C171.229 19.966 171.455 20.4321 171.513 20.5029C171.855 19.8244 173.952 14.6677 174.89 12.9331Z" fill="white"/>
<path d="M107.227 40.4009C107.227 40.3743 94.4754 5.85283 94.161 5.23627C91.6973 -0.551729 82.6824 -0.554677 80.2157 5.23627C79.9105 5.84693 67.1344 40.3773 67.1497 40.4009C69.0058 43.584 76.3081 46.239 78.384 41.1443C78.819 39.9906 79.3194 38.861 79.883 37.7606C81.043 35.6956 81.5437 35.4477 85.3506 35.4212C86.2206 35.4212 88.2629 35.4212 88.9468 35.4212C92.6254 35.4477 93.181 35.5864 94.3411 37.4862C94.8326 38.2975 95.3149 39.5513 95.9927 41.1207C98.4929 46.1004 106.204 42.7226 107.227 40.4009ZM87.1884 15.3254L90.1343 24.8394H84.2424L87.1884 15.3254Z" fill="white"/>
<path d="M73.4934 17.6206C73.7346 13.9183 72.8828 8.53742 76.1463 2.65797C76.9706 1.18294 78.4909 -0.531026 79.6021 0.159285C81.1926 1.15345 83.9707 7.48721 84.6575 7.42526L73.4934 17.6206Z" fill="#1D1D1B"/>
<path d="M89.5024 7.42527C90.1893 7.48722 92.9644 1.15346 94.5579 0.159288C95.6691 -0.531023 97.1894 1.17705 98.0137 2.65797C101.283 8.53742 100.425 13.9183 100.664 17.6206L89.5024 7.42527Z" fill="#1D1D1B"/>
<path d="M78.1491 2.60494C77.0714 2.72294 75.7404 4.92958 74.9802 9.04195C74.7024 10.5465 74.4094 16.3522 75.7251 14.4051L79.8342 8.7086C80.9058 8.18349 79.3946 2.47219 78.1491 2.60494Z" fill="#F2F2F1"/>
<path d="M99.1797 9.04195C98.4196 4.92958 97.0885 2.72294 96.0078 2.60494C94.7653 2.47219 93.2603 8.18349 94.3257 8.7086L98.4317 14.4051C99.7506 16.3522 99.4575 10.5465 99.1797 9.04195Z" fill="#F2F2F1"/>
<path d="M75.9876 9.02122C75.8014 10.0301 75.6091 13.1513 75.9876 14.0363L79.8311 8.70556C80.692 8.2837 79.883 4.50764 78.8878 3.10046C77.9017 3.22732 76.6989 5.2481 75.9876 9.02122Z" fill="#EB656A"/>
<path d="M95.2692 3.12122C94.2709 4.51364 93.462 8.2897 94.3259 8.72631L98.1663 14.0364C98.5418 13.1248 98.3495 10.0214 98.1663 9.02132C97.4581 5.25705 96.2583 3.23627 95.2692 3.12122Z" fill="#EB656A"/>
<path d="M87.0786 7.22766C82.2185 7.36926 79.9594 7.64067 76.7723 11.4698C75.0194 13.5154 73.4622 15.7104 72.1198 18.0278C67.8153 25.6242 74.1438 30.064 78.723 31.719C79.4653 33.2557 80.6459 34.556 82.1262 35.4669C83.6065 36.3779 85.3251 36.8618 87.0801 36.8618C88.8351 36.8618 90.5537 36.3779 92.034 35.4669C93.5143 34.556 94.6949 33.2557 95.4372 31.719C100.016 30.064 106.342 25.6242 102.04 18.0278C100.698 15.7096 99.1398 13.5145 97.3849 11.4698C94.2008 7.64067 91.9417 7.36926 87.0786 7.22766Z" fill="#1D1D1B"/>
<path d="M87.0785 20.848C85.43 20.8686 86.1627 19.1723 85.2896 15.5379C84.3737 11.6792 76.8546 12.0155 78.1002 16.7975C78.1538 16.9943 78.1579 17.2006 78.1123 17.3993C78.0667 17.598 77.9727 17.7833 77.838 17.9397C77.7033 18.0961 77.5318 18.2192 77.338 18.2986C77.1441 18.3781 76.9334 18.4116 76.7234 18.3965C73.6706 18.1664 72.2052 20.0219 72.0037 21.1607C70.9993 26.813 75.7953 29.4208 79.8006 31.4622C80.9057 33.837 83.6044 35.8194 87.0785 35.9286C90.5557 35.8194 93.2513 33.837 94.3595 31.4622C98.3648 29.4267 103.1 26.813 102.095 21.1607C101.894 20.0219 100.496 18.1664 97.4367 18.3965C97.2267 18.4116 97.016 18.3781 96.8221 18.2986C96.6283 18.2192 96.4568 18.0961 96.3221 17.9397C96.1874 17.7833 96.0934 17.598 96.0478 17.3993C96.0021 17.2006 96.0063 16.9943 96.0599 16.7975C97.3055 12.0155 89.7986 11.6792 88.8705 15.5379C87.9944 19.1723 88.727 20.8686 87.0785 20.848Z" fill="#F2F2F1"/>
<path d="M72.0037 21.1696C70.9993 26.8219 75.7953 29.4297 79.8006 31.4711C80.9057 33.8459 83.6044 35.8284 87.0785 35.9375C90.5557 35.8284 93.2513 33.8459 94.3595 31.4711C98.3648 29.4356 103.1 26.8219 102.095 21.1696C102.233 25.6536 96.9055 27.9547 93.3093 28.2644C91.8531 30.1997 89.185 31.008 87.0785 29.3176C84.6363 31.008 82.658 30.356 80.8386 28.0461C78.4513 27.934 72.1747 26.5475 72.0037 21.1696Z" fill="#D7D7D6"/>
<path d="M87.0785 28.3972C86.4132 28.3027 85.7912 28.0216 85.2895 27.5889C84.4134 26.8484 83.8364 26.2791 83.9646 25.7392C84.0317 25.4442 84.2393 25.1905 84.8346 24.987C86.3044 24.5976 87.8555 24.5976 89.3253 24.987C89.9176 25.1905 90.1282 25.456 90.1954 25.7392C90.3205 26.2791 89.7436 26.8484 88.8705 27.5889C88.3681 28.0223 87.7449 28.3034 87.0785 28.3972Z" fill="#1D1D1B"/>
<path d="M84.6058 20.7743C84.7492 22.0162 84.3493 22.7537 83.0519 23.1343C81.2354 23.6535 78.9916 23.2847 78.3322 21.0693C77.3584 17.8065 79.3732 17.1162 81.9956 17.6354C83.7662 17.9835 84.4104 19.078 84.6058 20.7743Z" fill="#1D1D1B"/>
<path d="M89.5543 20.7743C89.4108 22.0162 89.8107 22.7537 91.1081 23.1343C92.9398 23.6535 95.1684 23.2847 95.8278 21.0693C96.8017 17.8065 94.7868 17.1162 92.1644 17.6354C90.3938 17.9835 89.7496 19.078 89.5543 20.7743Z" fill="#1D1D1B"/>
<path d="M81.1041 17.8861C80.4492 18.0318 79.8804 18.4219 79.5218 18.9712C79.1632 19.5205 79.0439 20.1845 79.19 20.8185C79.2631 21.1315 79.3995 21.4274 79.5913 21.6893C79.7831 21.9512 80.0265 22.1739 80.3076 22.3447C80.5887 22.5154 80.9019 22.6309 81.2293 22.6844C81.5567 22.7379 81.8918 22.7283 82.2154 22.6564C82.8698 22.51 83.4378 22.1197 83.7958 21.5705C84.1537 21.0212 84.2726 20.3576 84.1264 19.724C84.0536 19.4112 83.9176 19.1153 83.7261 18.8534C83.5346 18.5915 83.2914 18.3688 83.0106 18.198C82.7297 18.0272 82.4167 17.9118 82.0896 17.8582C81.7624 17.8047 81.4275 17.8142 81.1041 17.8861ZM82.2947 21.3643C82.1213 21.4006 81.9422 21.4035 81.7676 21.3727C81.593 21.3419 81.4265 21.278 81.2775 21.1848C81.1286 21.0916 81.0002 20.9708 80.8997 20.8295C80.7992 20.6882 80.7286 20.529 80.692 20.3612C80.6083 20.0229 80.6666 19.6663 80.8543 19.3694C81.0419 19.0725 81.3436 18.8596 81.6933 18.7771C81.9446 18.7268 82.2057 18.7526 82.4413 18.8508C82.71 18.9724 82.9422 19.1582 83.1159 19.3907C83.1979 19.5099 83.2588 19.6415 83.296 19.7801C83.3798 20.1184 83.3214 20.475 83.1338 20.7719C82.9461 21.0688 82.6445 21.2818 82.2947 21.3643Z" fill="url(#paint0_radial_80_111)"/>
<path d="M93.0559 17.8862C93.7108 18.0319 94.2796 18.4219 94.6382 18.9712C94.9968 19.5206 95.116 20.1846 94.97 20.8186C94.8588 21.2905 94.6053 21.72 94.2417 22.0528C93.878 22.3856 93.4204 22.6068 92.9267 22.6884C92.433 22.7701 91.9253 22.7085 91.4678 22.5114C91.0103 22.3144 90.6235 21.9907 90.3563 21.5813C90.0891 21.1719 89.9534 20.6952 89.9664 20.2113C89.9795 19.7275 90.1406 19.2582 90.4295 18.8628C90.7183 18.4674 91.122 18.1636 91.5895 17.9897C92.0569 17.8159 92.5672 17.7799 93.0559 17.8862ZM91.8653 21.3643C92.2153 21.4299 92.578 21.3613 92.8767 21.1732C93.1754 20.9851 93.3867 20.6921 93.466 20.3562C93.5453 20.0203 93.4863 19.6677 93.3016 19.3731C93.1168 19.0784 92.8207 18.8647 92.4759 18.7771C92.2246 18.7269 91.9635 18.7526 91.7279 18.8509C91.805 18.8893 91.8687 18.9488 91.9111 19.022C91.9715 19.1422 91.986 19.2793 91.9519 19.4089C91.9178 19.5384 91.8374 19.6522 91.7248 19.73C91.6736 19.7672 91.6144 19.793 91.5517 19.8056C91.4889 19.8182 91.424 19.8173 91.3617 19.8029C91.2993 19.7885 91.241 19.7611 91.1908 19.7225C91.1407 19.6839 91.1 19.6351 91.0715 19.5795C91.0519 19.5185 91.0447 19.4544 91.0502 19.3907C90.9704 19.5108 90.9107 19.6422 90.8731 19.7801C90.7891 20.1172 90.8462 20.4728 91.032 20.7694C91.2178 21.0661 91.5173 21.2799 91.8653 21.3643Z" fill="url(#paint1_radial_80_111)"/>
<path d="M91.67 19.9925C92.0156 19.9925 92.2958 19.7217 92.2958 19.3877C92.2958 19.0537 92.0156 18.783 91.67 18.783C91.3244 18.783 91.0442 19.0537 91.0442 19.3877C91.0442 19.7217 91.3244 19.9925 91.67 19.9925Z" fill="#F2F2F1"/>
<path d="M81.4764 20.0514C81.8221 20.0514 82.1022 19.7807 82.1022 19.4467C82.1022 19.1127 81.8221 18.8419 81.4764 18.8419C81.1308 18.8419 80.8506 19.1127 80.8506 19.4467C80.8506 19.7807 81.1308 20.0514 81.4764 20.0514Z" fill="#F2F2F1"/>
<path d="M71.7349 21.4115C71.5853 27.2201 75.5509 29.297 80.475 31.4417C81.4367 31.8635 81.6717 31.8428 82.8165 32.4948C83.3508 32.7898 82.3923 32.896 80.3042 32.2205C76.2806 30.9195 69.9796 27.6774 70.8802 21.3525C70.9259 21.0339 71.7471 21.0634 71.7349 21.4115Z" fill="#1D1D1B"/>
<path d="M102.342 21.4115C102.489 27.1729 98.5966 29.2586 93.7244 31.3944C92.723 31.834 92.4513 31.8222 91.2607 32.5007C90.7204 32.7957 91.7309 32.896 93.8678 32.2057C97.8945 30.8811 104.092 27.6449 103.197 21.3672C103.161 21.0339 102.342 21.0634 102.342 21.4115Z" fill="#1D1D1B"/>
<path d="M93.4132 26.3439C93.2317 25.5219 92.8186 24.7644 92.2195 24.155C92.1997 24.1378 92.1743 24.1277 92.1477 24.1264C92.1211 24.1251 92.0948 24.1327 92.0733 24.1479C92.0518 24.1632 92.0364 24.1851 92.0297 24.21C92.0229 24.2349 92.0253 24.2614 92.0363 24.2848C94.4023 28.4768 90.2688 30.8044 88.4859 29.5064C87.8357 28.9695 87.4083 28.1789 87.509 27.583C87.5762 27.583 87.509 27.4473 87.509 27.3529C87.4327 26.9251 86.7458 26.8543 86.6939 27.4827C86.6668 27.8591 86.5617 28.2264 86.385 28.5629C86.2083 28.8993 85.9635 29.1981 85.6651 29.4415C83.9067 30.8634 79.648 28.4208 82.075 24.2848C82.0879 24.2609 82.0915 24.2334 82.0851 24.2071C82.0786 24.1809 82.0626 24.1578 82.04 24.1421C82.0174 24.1263 81.9897 24.1189 81.9619 24.1213C81.9341 24.1237 81.9082 24.1357 81.8888 24.155C80.3349 25.7333 80.1395 28.0343 81.6293 29.6421C83.1191 31.2499 85.5369 31.5036 86.8191 30.0846C87.219 29.6421 86.932 29.6333 87.3289 30.0699C89.3926 32.365 94.1825 30.0699 93.4132 26.3439Z" fill="#1D1D1B"/>
<path d="M90.3022 31.3797C90.0946 31.2381 89.945 32.0612 88.7544 32.5597C87.65 32.986 86.4183 32.986 85.3139 32.5597C84.2515 32.1084 83.9615 31.3384 83.8119 31.3531C83.5066 31.3826 83.9676 33.253 85.897 33.8076C87.3806 34.2412 89.1849 33.8076 89.9939 32.4712C90.1312 32.2706 90.4701 31.4918 90.3022 31.3797Z" fill="#1D1D1B"/>
</g>
<defs>
<radialGradient id="paint0_radial_80_111" cx="0" cy="0" r="1" gradientUnits="userSpaceOnUse" gradientTransform="translate(77.1281 14.0245) scale(3.88502 3.75424)">
<stop offset="0.16" stop-color="#71C5DF"/>
<stop offset="0.57" stop-color="#70C3DE"/>
<stop offset="0.72" stop-color="#6CBCDB"/>
<stop offset="0.83" stop-color="#66B1D6"/>
<stop offset="0.91" stop-color="#5DA0CF"/>
<stop offset="0.99" stop-color="#518AC6"/>
<stop offset="1" stop-color="#4E85C4"/>
</radialGradient>
<radialGradient id="paint1_radial_80_111" cx="0" cy="0" r="1" gradientUnits="userSpaceOnUse" gradientTransform="translate(-36111.7 -35180.5) scale(92.441 89.372)">
<stop offset="0.16" stop-color="#71C5DF"/>
<stop offset="0.57" stop-color="#70C3DE"/>
<stop offset="0.72" stop-color="#6CBCDB"/>
<stop offset="0.83" stop-color="#66B1D6"/>
<stop offset="0.91" stop-color="#5DA0CF"/>
<stop offset="0.99" stop-color="#518AC6"/>
<stop offset="1" stop-color="#4E85C4"/>
</radialGradient>
<clipPath id="clip0_80_111">
<rect width="180" height="44" fill="white"/>
</clipPath>
</defs>
</svg>
