<svg width="27" height="25" viewBox="0 0 27 25" fill="none" xmlns="http://www.w3.org/2000/svg">
<g clip-path="url(#clip0_89_379)">
<path d="M10.8702 12.2256C10.8702 12.9991 11.0997 13.7552 11.5295 14.3983C11.9593 15.0413 12.5702 15.5424 13.285 15.8382C13.9997 16.1339 14.786 16.211 15.5446 16.0597C16.3031 15.9084 16.9997 15.5355 17.5463 14.9882C18.0928 14.4409 18.4647 13.7438 18.615 12.9851C18.7652 12.2263 18.687 11.44 18.3903 10.7258C18.0936 10.0115 17.5916 9.40125 16.948 8.9723C16.3043 8.54336 15.5479 8.31498 14.7744 8.31604C13.7385 8.31747 12.7454 8.73001 12.0134 9.46305C11.2814 10.1961 10.8702 11.1897 10.8702 12.2256V12.2256ZM14.7744 9.52564C15.3084 9.52564 15.8305 9.684 16.2745 9.98068C16.7185 10.2774 17.0646 10.699 17.2689 11.1924C17.4733 11.6858 17.5267 12.2286 17.4226 12.7524C17.3184 13.2761 17.0612 13.7572 16.6836 14.1348C16.306 14.5124 15.8249 14.7696 15.3012 14.8738C14.7774 14.9779 14.2346 14.9245 13.7412 14.7201C13.2478 14.5158 12.8262 14.1697 12.5295 13.7257C12.2328 13.2817 12.0744 12.7597 12.0744 12.2256C12.0744 11.5096 12.3589 10.8228 12.8653 10.3165C13.3716 9.81011 14.0584 9.52564 14.7744 9.52564Z" fill="black"/>
<path d="M14.7744 9.00766e-07C11.5338 0.00428996 8.42722 1.29389 6.13627 3.58586C3.84531 5.87783 2.55708 8.98498 2.55422 12.2256C2.55218 13.2679 2.68467 14.3061 2.94842 15.3144C2.96792 15.3903 3.00218 15.4616 3.04923 15.5242C3.09629 15.5869 3.15522 15.6396 3.22266 15.6795C3.2901 15.7193 3.36474 15.7455 3.4423 15.7565C3.51987 15.7676 3.59884 15.7632 3.67472 15.7437C3.7506 15.7242 3.82189 15.6899 3.88453 15.6429C3.94717 15.5958 3.99993 15.5369 4.03979 15.4695C4.07966 15.402 4.10585 15.3274 4.11687 15.2498C4.12789 15.1723 4.12352 15.0933 4.10402 15.0174C3.43996 12.4763 3.70521 9.78151 4.85199 7.41862C5.99877 5.05573 7.95168 3.18005 10.3589 2.12949C12.7661 1.07893 15.4694 0.922556 17.9816 1.68855C20.4939 2.45454 22.6501 4.09253 24.0617 6.30743C25.4733 8.52234 26.0475 11.1685 25.6808 13.7693C25.3142 16.37 24.0309 18.7544 22.062 20.4927C20.0931 22.2311 17.5682 23.2092 14.942 23.2508C12.3159 23.2925 9.7612 22.3949 7.73822 20.7198C7.67795 20.6698 7.60841 20.6322 7.53359 20.6091C7.45877 20.5859 7.38013 20.5778 7.30216 20.585C7.22418 20.5923 7.14841 20.6149 7.07915 20.6514C7.00989 20.688 6.94852 20.7378 6.89852 20.7981C6.84853 20.8584 6.8109 20.9279 6.78777 21.0027C6.76465 21.0776 6.75649 21.1562 6.76377 21.2342C6.77104 21.3121 6.79359 21.3879 6.83015 21.4572C6.86671 21.5264 6.91655 21.5878 6.97682 21.6378C8.48771 22.8903 10.2779 23.7606 12.1961 24.1752C14.1143 24.5899 16.1041 24.5366 17.9974 24.02C19.8907 23.5034 21.6318 22.5386 23.0736 21.2071C24.5153 19.8757 25.6153 18.2167 26.2807 16.3704C26.946 14.5241 27.1571 12.5448 26.8961 10.5997C26.6351 8.65467 25.9097 6.80101 24.7812 5.19543C23.6527 3.58985 22.1543 2.27955 20.4125 1.37525C18.6708 0.470953 16.7369 -0.000752372 14.7744 9.00766e-07V9.00766e-07Z" fill="black"/>
<path d="M14.7744 3.94206C16.9705 3.94491 19.0758 4.81857 20.6286 6.37142C22.1815 7.92428 23.0551 10.0296 23.058 12.2257C23.0501 12.3088 23.0596 12.3927 23.086 12.4719C23.1124 12.5511 23.155 12.6239 23.2112 12.6857C23.2674 12.7475 23.3359 12.7969 23.4122 12.8307C23.4886 12.8644 23.5712 12.8819 23.6547 12.8819C23.7382 12.8819 23.8208 12.8644 23.8971 12.8307C23.9735 12.7969 24.042 12.7475 24.0982 12.6857C24.1543 12.6239 24.197 12.5511 24.2234 12.4719C24.2498 12.3927 24.2593 12.3088 24.2514 12.2257C24.2485 9.71308 23.2491 7.30423 21.4725 5.52756C19.6958 3.7509 17.287 2.75152 14.7744 2.74866C14.6259 2.7628 14.4881 2.83177 14.3877 2.94211C14.2874 3.05245 14.2318 3.19622 14.2318 3.34536C14.2318 3.49449 14.2874 3.63827 14.3877 3.7486C14.4881 3.85894 14.6259 3.92792 14.7744 3.94206Z" fill="black"/>
<path d="M14.7744 6.20463C16.3713 6.20606 17.9025 6.8407 19.0322 7.96939C20.1619 9.09808 20.7979 10.6287 20.8008 12.2256C20.7929 12.3088 20.8024 12.3926 20.8288 12.4719C20.8552 12.5511 20.8978 12.6239 20.954 12.6857C21.0102 12.7475 21.0787 12.7969 21.155 12.8306C21.2314 12.8644 21.314 12.8819 21.3975 12.8819C21.481 12.8819 21.5636 12.8644 21.6399 12.8306C21.7163 12.7969 21.7848 12.7475 21.841 12.6857C21.8971 12.6239 21.9398 12.5511 21.9662 12.4719C21.9926 12.3926 22.0021 12.3088 21.9942 12.2256C21.9913 10.3122 21.2296 8.47803 19.8761 7.12553C18.5226 5.77303 16.6878 5.01266 14.7744 5.01123C14.6259 5.02537 14.4881 5.09434 14.3877 5.20468C14.2874 5.31502 14.2318 5.4588 14.2318 5.60793C14.2318 5.75706 14.2874 5.90084 14.3877 6.01118C14.4881 6.12152 14.6259 6.19049 14.7744 6.20463V6.20463Z" fill="black"/>
<path d="M6.97679 18.5868L6.59879 10.098C6.60294 9.88577 6.67568 9.68063 6.80611 9.51321C6.93654 9.34579 7.11766 9.22509 7.32239 9.16916L9.80098 8.59676V9.03416C9.79597 9.24611 9.72291 9.45084 9.59261 9.61809C9.46231 9.78534 9.28168 9.90625 9.07738 9.96296L7.84079 10.2492C7.76438 10.2669 7.69225 10.2997 7.62856 10.3455C7.56487 10.3912 7.51088 10.4492 7.46971 10.516C7.42855 10.5828 7.40101 10.657 7.3887 10.7345C7.37639 10.812 7.37954 10.8911 7.39799 10.9674C7.41514 11.0436 7.44728 11.1156 7.49254 11.1792C7.5378 11.2429 7.59528 11.2969 7.66162 11.3381C7.72796 11.3793 7.80185 11.4069 7.87896 11.4193C7.95607 11.4316 8.03488 11.4285 8.11079 11.4102L9.36359 11.1456C9.84484 11.0294 10.2716 10.7515 10.5724 10.3583C10.8732 9.96505 11.0298 9.48044 11.016 8.98556L10.9836 8.24036C10.9791 8.10174 10.9439 7.96585 10.8803 7.84256C10.8168 7.71927 10.7267 7.61166 10.6164 7.52756C10.504 7.44407 10.3747 7.38629 10.2375 7.35829C10.1003 7.3303 9.95869 7.33278 9.82259 7.36556L7.05239 8.00816C6.57213 8.12537 6.14661 8.40376 5.84687 8.79687C5.54712 9.18998 5.39129 9.67401 5.40539 10.1682L5.65919 16.1676C5.20559 16.254 3.90419 16.5564 1.77659 17.0694C1.23318 17.1983 0.754446 17.5187 0.428144 17.972C0.101841 18.4252 -0.0501664 18.9809 -1.41065e-05 19.5372L0.0323859 19.8396C0.0726937 20.2568 0.267111 20.6441 0.577659 20.9257C0.888208 21.2073 1.29258 21.363 1.71179 21.3624C1.83732 21.364 1.96255 21.3495 2.08439 21.3192C3.26494 21.1 4.43155 20.8115 5.57819 20.4552C5.95242 20.3041 6.27892 20.0547 6.52319 19.7335C6.76746 19.4122 6.92045 19.031 6.96598 18.63L6.97679 18.5868ZM5.13539 19.3482C5.05979 19.3806 4.59539 19.5318 1.83059 20.1582C1.76209 20.173 1.69123 20.1731 1.62267 20.1586C1.55411 20.1441 1.48941 20.1152 1.43279 20.0739C1.37618 20.0326 1.32895 19.9797 1.29421 19.9189C1.25946 19.858 1.23798 19.7905 1.23119 19.7208L1.19879 19.4184C1.173 19.1479 1.24563 18.8772 1.40335 18.656C1.56108 18.4348 1.7933 18.2779 2.05739 18.2142C4.37939 17.6742 5.32979 17.4366 5.71859 17.3556L5.78339 18.5598C5.74873 18.7344 5.67144 18.8978 5.55838 19.0353C5.44533 19.1729 5.30002 19.2803 5.13539 19.3482V19.3482Z" fill="black"/>
</g>
<defs>
<clipPath id="clip0_89_379">
<rect width="27" height="24.4458" fill="white"/>
</clipPath>
</defs>
</svg>
