<svg width="27" height="28" viewBox="0 0 27 28" fill="none" xmlns="http://www.w3.org/2000/svg">
<g clip-path="url(#clip0_89_360)">
<path d="M25.5741 9.37515C25.3878 6.82858 24.2452 4.44672 22.3755 2.70776C20.5058 0.968797 18.0475 0.00147663 15.4941 0L11.5059 0C8.95324 0.00403453 6.49636 0.972218 4.62722 2.71067C2.75808 4.44912 1.61466 6.82951 1.42594 9.37515C1.00579 9.54225 0.645365 9.83145 0.391189 10.2054C0.137014 10.5794 0.000754712 11.0209 0 11.4731L0 15.6908C0 16.2907 0.2383 16.866 0.662477 17.2902C1.08665 17.7144 1.66196 17.9527 2.26184 17.9527H3.82436C3.85714 18.9579 3.90631 19.9249 3.97734 20.8209C4.05743 21.7424 4.47785 22.6009 5.15663 23.2292C5.8354 23.8575 6.72386 24.2104 7.64873 24.2191H17.3244C17.4809 24.2191 17.6309 24.157 17.7416 24.0463C17.8522 23.9357 17.9144 23.7856 17.9144 23.6291C17.9144 23.4726 17.8522 23.3225 17.7416 23.2119C17.6309 23.1012 17.4809 23.0391 17.3244 23.0391H7.64873C7.01593 23.0387 6.40626 22.8012 5.94001 22.3733C5.47375 21.9455 5.18478 21.3585 5.13011 20.728C4.89025 17.1796 4.87382 13.6195 5.08094 10.069C5.17162 8.42527 5.88768 6.87849 7.08232 5.74583C8.27695 4.61316 9.85964 3.98042 11.5059 3.97734H15.4941C17.139 3.97894 18.7209 4.60973 19.9155 5.74037C21.1101 6.871 21.827 8.41582 21.9191 10.0581C22.0666 12.757 22.0994 16.4284 21.9955 18.9852C22.0022 19.1327 22.0639 19.2724 22.1684 19.3766C22.273 19.4809 22.4128 19.5421 22.5603 19.5483C22.7078 19.5545 22.8523 19.5051 22.9652 19.41C23.0781 19.3148 23.1512 19.1808 23.1702 19.0344C23.1702 18.6884 23.1811 18.3242 23.203 17.9417H24.7382C25.338 17.9417 25.9133 17.7034 26.3375 17.2792C26.7617 16.8551 27 16.2798 27 15.6799V11.4731C26.9992 11.0209 26.863 10.5794 26.6088 10.2054C26.3546 9.83145 25.9942 9.54225 25.5741 9.37515ZM2.26184 16.778C1.97204 16.778 1.69412 16.6629 1.4892 16.458C1.28428 16.2531 1.16916 15.9751 1.16916 15.6853V11.4731C1.16916 11.1833 1.28428 10.9054 1.4892 10.7004C1.69412 10.4955 1.97204 10.3804 2.26184 10.3804H3.90085C3.79158 12.5221 3.75334 14.7074 3.79158 16.7671L2.26184 16.778ZM15.4941 2.79725H11.5059C9.69576 2.79924 7.94554 3.44587 6.56895 4.62123C5.19235 5.79659 4.2794 7.42383 3.99373 9.21125H2.62788C2.85106 7.01109 3.88243 4.97192 5.52242 3.48836C7.16241 2.0048 9.29442 1.18232 11.5059 1.18009H15.4941C17.7056 1.18232 19.8376 2.0048 21.4776 3.48836C23.1176 4.97192 24.1489 7.01109 24.3721 9.21125H23.0117C22.7197 7.42573 21.8042 5.80155 20.4278 4.62724C19.0514 3.45293 17.3034 2.80454 15.4941 2.79725V2.79725ZM25.8199 15.6908C25.8199 15.9806 25.7048 16.2585 25.4999 16.4635C25.295 16.6684 25.017 16.7835 24.7272 16.7835H23.2248C23.2521 14.691 23.2248 12.3363 23.1155 10.3968H24.7546C25.0444 10.3968 25.3223 10.5119 25.5272 10.7168C25.7321 10.9218 25.8472 11.1997 25.8472 11.4895L25.8199 15.6908Z" fill="#9E9E9E"/>
<path d="M20.3948 13.2542V11.9375C20.3933 11.0584 20.0435 10.2158 19.4219 9.59417C18.8002 8.97256 17.9576 8.6227 17.0785 8.62126H9.89415C9.45702 8.6191 9.02376 8.70324 8.61921 8.86887C8.21466 9.03449 7.84678 9.27834 7.53667 9.58643C7.22655 9.89452 6.98029 10.2608 6.81201 10.6642C6.64373 11.0677 6.55674 11.5004 6.55603 11.9375V13.2542C6.55747 14.1333 6.90733 14.976 7.52894 15.5976C8.15055 16.2192 8.99321 16.569 9.8723 16.5705H17.0785C17.9576 16.569 18.8002 16.2192 19.4219 15.5976C20.0435 14.976 20.3933 14.1333 20.3948 13.2542V13.2542ZM19.2201 13.2542C19.2187 13.8213 18.9924 14.3646 18.5909 14.765C18.1895 15.1655 17.6455 15.3904 17.0785 15.3904H9.89415C9.32805 15.3889 8.78554 15.1634 8.38524 14.7631C7.98494 14.3628 7.75942 13.8203 7.75797 13.2542V11.9375C7.75797 11.371 7.98303 10.8276 8.38365 10.427C8.78426 10.0264 9.3276 9.80135 9.89415 9.80135H17.0785C17.6455 9.80134 18.1895 10.0262 18.5909 10.4267C18.9924 10.8271 19.2187 11.3705 19.2201 11.9375V13.2542Z" fill="#9E9E9E"/>
<path d="M17.1222 18.8377C14.7923 19.7828 12.1858 19.7828 9.85592 18.8377C9.70879 18.7845 9.54664 18.7914 9.40454 18.8568C9.26244 18.9223 9.15179 19.041 9.09651 19.1873C9.06865 19.2593 9.05547 19.3362 9.05775 19.4134C9.06003 19.4906 9.07773 19.5665 9.1098 19.6368C9.14187 19.707 9.18766 19.7702 9.24449 19.8225C9.30132 19.8748 9.36803 19.9151 9.44071 19.9413C10.734 20.4428 12.1075 20.7057 13.4945 20.7171C14.8764 20.7071 16.2448 20.4441 17.532 19.9413C17.6554 19.8725 17.7501 19.7618 17.7988 19.6292C17.8475 19.4966 17.847 19.3508 17.7974 19.2186C17.7478 19.0863 17.6524 18.9762 17.5285 18.9083C17.4046 18.8404 17.2604 18.8192 17.1222 18.8486V18.8377Z" fill="#9E9E9E"/>
<path d="M15.811 11.1398C15.5372 11.1398 15.2745 11.2486 15.0809 11.4422C14.8872 11.6359 14.7784 11.8985 14.7784 12.1723V13.0192C14.7784 13.293 14.8872 13.5557 15.0809 13.7493C15.2745 13.943 15.5372 14.0517 15.811 14.0517C16.0849 14.0517 16.3475 13.943 16.5412 13.7493C16.7348 13.5557 16.8436 13.293 16.8436 13.0192V12.1723C16.8436 12.0367 16.8169 11.9025 16.765 11.7772C16.7131 11.6519 16.637 11.5381 16.5412 11.4422C16.4453 11.3463 16.3314 11.2703 16.2062 11.2184C16.0809 11.1665 15.9466 11.1398 15.811 11.1398V11.1398Z" fill="#9E9E9E"/>
<path d="M11.1617 11.1398C10.8888 11.1412 10.6275 11.2506 10.4351 11.4441C10.2426 11.6376 10.1346 11.8994 10.1346 12.1723V13.0192C10.1243 13.1607 10.1432 13.3029 10.1903 13.4368C10.2374 13.5707 10.3116 13.6934 10.4082 13.7973C10.5048 13.9013 10.6219 13.9842 10.752 14.0409C10.8821 14.0976 11.0225 14.1268 11.1644 14.1268C11.3063 14.1268 11.4467 14.0976 11.5769 14.0409C11.707 13.9842 11.824 13.9013 11.9206 13.7973C12.0173 13.6934 12.0914 13.5707 12.1385 13.4368C12.1856 13.3029 12.2046 13.1607 12.1943 13.0192V12.1723C12.1943 11.8985 12.0855 11.6359 11.8918 11.4422C11.6982 11.2486 11.4355 11.1398 11.1617 11.1398V11.1398Z" fill="#9E9E9E"/>
<path d="M22.4272 20.5314C21.7562 20.5314 21.1002 20.7304 20.5423 21.1032C19.9843 21.476 19.5495 22.0058 19.2927 22.6258C19.0359 23.2457 18.9687 23.9279 19.0996 24.586C19.2305 25.2442 19.5537 25.8487 20.0281 26.3232C20.5026 26.7977 21.1072 27.1208 21.7653 27.2517C22.4234 27.3826 23.1056 27.3154 23.7255 27.0586C24.3455 26.8018 24.8754 26.367 25.2482 25.809C25.621 25.2511 25.8199 24.5952 25.8199 23.9241C25.8199 23.0243 25.4625 22.1614 24.8262 21.5251C24.19 20.8888 23.327 20.5314 22.4272 20.5314ZM22.4272 26.1368C21.988 26.1379 21.5584 26.0086 21.1928 25.7652C20.8272 25.5219 20.542 25.1756 20.3735 24.77C20.2049 24.3645 20.1605 23.9181 20.2459 23.4873C20.3314 23.0565 20.5427 22.6608 20.8533 22.3502C21.1638 22.0397 21.5595 21.8283 21.9903 21.7429C22.4211 21.6575 22.8676 21.7019 23.2731 21.8704C23.6786 22.039 24.025 22.3241 24.2683 22.6897C24.5116 23.0554 24.6409 23.485 24.6398 23.9241C24.6384 24.5105 24.4048 25.0725 23.9902 25.4871C23.5755 25.9018 23.0136 26.1354 22.4272 26.1368V26.1368Z" fill="#9E9E9E"/>
</g>
<defs>
<clipPath id="clip0_89_360">
<rect width="27" height="27.3169" fill="white"/>
</clipPath>
</defs>
</svg>
