<svg width="25" height="24" viewBox="0 0 25 24" fill="none" xmlns="http://www.w3.org/2000/svg">
<path d="M0 8.81289V14.269C0 15.0192 0.625 15.633 1.38889 15.633H5.55556L10.125 20.1206C11 20.9799 12.5 20.3661 12.5 19.1521V3.9161C12.5 2.70213 11 2.08833 10.125 2.94765L5.55556 7.44888H1.38889C0.625 7.44888 0 8.06269 0 8.81289ZM18.75 11.541C18.75 9.12667 17.3333 7.05332 15.2778 6.04395V17.0243C17.3333 16.0286 18.75 13.9553 18.75 11.541ZM15.2778 1.24264V1.51544C15.2778 2.03377 15.625 2.48389 16.1111 2.67485C19.6944 4.07978 22.2222 7.53072 22.2222 11.541C22.2222 15.5511 19.6944 19.0021 16.1111 20.407C15.6111 20.598 15.2778 21.0481 15.2778 21.5664V21.8392C15.2778 22.6985 16.1528 23.2987 16.9583 22.9986C21.6667 21.2391 25 16.7788 25 11.541C25 6.30311 21.6667 1.84281 16.9583 0.0832352C16.1528 -0.230487 15.2778 0.383317 15.2778 1.24264Z" fill="#94CDF5"/>
</svg>
