<svg width="25" height="25" viewBox="0 0 25 25" fill="none" xmlns="http://www.w3.org/2000/svg">
<path d="M0.875 0.905429C0.333333 1.446 0.333333 2.31923 0.875 2.85981L5.95833 7.93287L5.55556 8.34869H1.38889C0.625 8.34869 0 8.97243 0 9.73475V15.2791C0 16.0414 0.625 16.6652 1.38889 16.6652H5.55556L10.125 21.2254C11 22.0986 12.5 21.4749 12.5 20.2413V14.4613L18.3056 20.2551C17.625 20.768 16.8889 21.1977 16.0833 21.5165C15.5833 21.7244 15.2778 22.2511 15.2778 22.7916C15.2778 23.7896 16.2917 24.4272 17.2083 24.053C18.3194 23.5956 19.3611 22.9857 20.2917 22.2372L22.1528 24.0946C22.6944 24.6351 23.5694 24.6351 24.1111 24.0946C24.6528 23.554 24.6528 22.6808 24.1111 22.1402L2.84722 0.905429C2.30556 0.364857 1.43056 0.364857 0.875 0.905429ZM22.2222 12.5069C22.2222 13.6435 22.0139 14.7385 21.6528 15.7503L23.7778 17.8711C24.5556 16.2493 25 14.4336 25 12.5069C25 7.19825 21.6667 2.65189 16.9722 0.863847C16.1528 0.545048 15.2778 1.18265 15.2778 2.05588V2.31923C15.2778 2.84595 15.625 3.30335 16.125 3.4974C19.6944 4.93893 22.2222 8.43186 22.2222 12.5069ZM10.125 3.78848L9.88889 4.02412L12.5 6.62995V4.75874C12.5 3.52513 11 2.91525 10.125 3.78848ZM18.75 12.5069C18.75 10.0535 17.3333 7.94673 15.2778 6.92103V9.40212L18.7222 12.8396C18.7361 12.7287 18.75 12.6178 18.75 12.5069Z" fill="#94CDF5"/>
</svg>
